<svg xmlns="http://www.w3.org/2000/svg" viewBox="0 0 606.64 133.48"><defs><style>.cls-1{fill:#862f98;}.cls-2{fill:#180c32;}.cls-3{fill:#fff;}</style></defs><g id="Capa_2" data-name="Capa 2"><g id="Capa_1-2" data-name="Capa 1"><circle class="cls-1" cx="66.74" cy="66.74" r="66.74"/><path class="cls-2" d="M100.14,44.9H84.73A7.57,7.57,0,0,0,77,52.61V93.72a7.57,7.57,0,0,0,7.71,7.7h15.41a7.57,7.57,0,0,0,7.71-7.7V52.61A7.57,7.57,0,0,0,100.14,44.9Zm2.57,48.82a2.43,2.43,0,0,1-2.57,2.57H84.73a2.42,2.42,0,0,1-2.57-2.57V52.61A2.42,2.42,0,0,1,84.73,50v.77a6.9,6.9,0,0,0,6.93,6.94H93.2a6.91,6.91,0,0,0,6.94-6.94V50a2.43,2.43,0,0,1,2.57,2.57Z"/><path class="cls-2" d="M97.57,86H87.29a2.57,2.57,0,0,0,0,5.14H97.57a2.57,2.57,0,1,0,0-5.14Z"/><path class="cls-2" d="M71.88,91.15H50c0,.25,0,.51-.25.51a6.33,6.33,0,0,1-6.17,4.63,2.57,2.57,0,1,0,0,5.13H74.45a13.2,13.2,0,0,1-2.57-7.7Z"/><path class="cls-2" d="M97.57,39.77a7.57,7.57,0,0,0-7.71-7.71H33.34a7.57,7.57,0,0,0-7.7,7.71V78.3A7.57,7.57,0,0,0,33.34,86H71.88V52.61A12.72,12.72,0,0,1,84.73,39.77Z"/><path class="cls-3" d="M159.53,56.35a23.17,23.17,0,0,1,9-9.15,26.28,26.28,0,0,1,13.14-3.27,25.13,25.13,0,0,1,15.41,4.75,22.85,22.85,0,0,1,8.57,13H192.14a11,11,0,0,0-4.28-4.83,12.09,12.09,0,0,0-6.3-1.65,11.75,11.75,0,0,0-9.22,4q-3.53,4-3.53,10.58t3.53,10.59a11.75,11.75,0,0,0,9.22,4,12.1,12.1,0,0,0,6.3-1.66,10.93,10.93,0,0,0,4.28-4.83h13.54a22.64,22.64,0,0,1-8.57,12.93,25.31,25.31,0,0,1-15.41,4.72,26.28,26.28,0,0,1-13.14-3.28,23.2,23.2,0,0,1-9-9.11,27,27,0,0,1-3.24-13.32A27.14,27.14,0,0,1,159.53,56.35Z"/><path class="cls-3" d="M220.9,93.1a18.46,18.46,0,0,1-7.41-7.2A21.51,21.51,0,0,1,210.79,75a21.37,21.37,0,0,1,2.73-10.91A18.63,18.63,0,0,1,221,56.81a23.79,23.79,0,0,1,21.31,0,18.57,18.57,0,0,1,7.49,7.24A21.28,21.28,0,0,1,252.55,75a21.22,21.22,0,0,1-2.77,10.91,18.78,18.78,0,0,1-7.56,7.23,22.64,22.64,0,0,1-10.7,2.52A22.21,22.21,0,0,1,220.9,93.1Zm16.64-10.73Q240,79.78,240,75t-2.41-7.42a8.18,8.18,0,0,0-11.92,0q-2.37,2.55-2.37,7.45t2.34,7.41a7.56,7.56,0,0,0,5.86,2.6A8,8,0,0,0,237.54,82.37Z"/><path class="cls-3" d="M322.28,59q4.43,4.55,4.43,12.6V95.05H314.47V73.23a8.28,8.28,0,0,0-2.05-6,8.57,8.57,0,0,0-11.31,0,8.32,8.32,0,0,0-2.05,6V95.05H286.82V73.23a8.28,8.28,0,0,0-2.05-6,8.57,8.57,0,0,0-11.31,0,8.32,8.32,0,0,0-2,6V95.05H259.1V54.87h12.31v5a13.24,13.24,0,0,1,4.9-4,15.44,15.44,0,0,1,6.84-1.47,16.73,16.73,0,0,1,8.1,1.94,14.05,14.05,0,0,1,5.58,5.55,16.14,16.14,0,0,1,5.69-5.4,15.27,15.27,0,0,1,7.84-2.09Q317.86,54.44,322.28,59Z"/><path class="cls-3" d="M352.63,56A15.25,15.25,0,0,1,360,54.29a16.6,16.6,0,0,1,9,2.52,17.46,17.46,0,0,1,6.38,7.2,24.17,24.17,0,0,1,2.34,10.88,24.35,24.35,0,0,1-2.34,10.9A17.6,17.6,0,0,1,369,93.06a16.38,16.38,0,0,1-9,2.56,15.24,15.24,0,0,1-7.38-1.73,13.57,13.57,0,0,1-5-4.46V114.2H335.35V54.87h12.31v5.69A13.24,13.24,0,0,1,352.63,56Zm10,11.63a8.44,8.44,0,0,0-6.3-2.63,8.33,8.33,0,0,0-6.23,2.66A10.11,10.11,0,0,0,347.59,75a10.09,10.09,0,0,0,2.55,7.27,8.63,8.63,0,0,0,12.5,0,10.13,10.13,0,0,0,2.59-7.3A9.91,9.91,0,0,0,362.67,67.65Z"/><path class="cls-3" d="M423.91,54.87V95.05H411.59V89.57a13.45,13.45,0,0,1-5.07,4.29,15.5,15.5,0,0,1-7.09,1.62,16,16,0,0,1-8.14-2,13.83,13.83,0,0,1-5.47-5.94,20.19,20.19,0,0,1-1.95-9.15V54.87h12.24V76.68A8.84,8.84,0,0,0,398.2,83a7.32,7.32,0,0,0,5.62,2.23A7.42,7.42,0,0,0,409.51,83a8.84,8.84,0,0,0,2.08-6.27V54.87Z"/><path class="cls-1" d="M466.31,60.49a9.24,9.24,0,0,0-3.92-3.86,12.93,12.93,0,0,0-6-1.33,12.39,12.39,0,0,0-9.58,3.92q-3.6,3.93-3.6,10.48,0,7,3.78,10.91t10.41,3.92a12.52,12.52,0,0,0,7.66-2.3,13,13,0,0,0,4.58-6.63H454V66.53h26.79V78a24.47,24.47,0,0,1-13,15,25.76,25.76,0,0,1-11.38,2.45,27,27,0,0,1-13.36-3.28A23.28,23.28,0,0,1,434,83a26.68,26.68,0,0,1-3.28-13.32A26.84,26.84,0,0,1,434,56.35a23.3,23.3,0,0,1,9.11-9.15,26.75,26.75,0,0,1,13.32-3.27q9.08,0,15.3,4.39a20.7,20.7,0,0,1,8.24,12.17Z"/><path class="cls-1" d="M527.3,54.87V95.05H515V89.57a13.56,13.56,0,0,1-5.08,4.29,15.5,15.5,0,0,1-7.09,1.62,16,16,0,0,1-8.14-2,13.89,13.89,0,0,1-5.47-5.94,20.19,20.19,0,0,1-1.94-9.15V54.87h12.24V76.68A8.84,8.84,0,0,0,501.59,83a7.34,7.34,0,0,0,5.62,2.23A7.42,7.42,0,0,0,512.9,83,8.84,8.84,0,0,0,515,76.68V54.87Z"/><path class="cls-1" d="M553.87,56.35a13.82,13.82,0,0,1,7.2-1.91v13h-3.39c-3.07,0-5.38.66-6.91,2s-2.3,3.64-2.3,7V95.05H536.15V54.87h12.32v6.69A16.27,16.27,0,0,1,553.87,56.35Z"/><path class="cls-1" d="M606.64,54.87V95.05H594.33V89.57a13.49,13.49,0,0,1-5.08,4.29,15.47,15.47,0,0,1-7.09,1.62,16,16,0,0,1-8.14-2,13.89,13.89,0,0,1-5.47-5.94,20.33,20.33,0,0,1-1.94-9.15V54.87h12.24V76.68A8.8,8.8,0,0,0,580.94,83a7.3,7.3,0,0,0,5.61,2.23A7.4,7.4,0,0,0,592.24,83a8.84,8.84,0,0,0,2.09-6.27V54.87Zm-11.45-10-17.35,7.27V43.64l17.35-8.35Z"/></g></g></svg>